<mxfile host="app.diagrams.net" modified="2022-09-17T02:15:15.347Z" agent="5.0 (Windows NT 6.1; Win64; x64) AppleWebKit/537.36 (KHTML, like Gecko) Chrome/100.0.4896.127 Safari/537.36" etag="QfK5dbZbCcZ4YvrokLqw" version="20.3.0" type="github">
  <diagram id="vp2Fs3lhox5-p6Rq-uuR" name="第 1 页">
    <mxGraphModel dx="1185" dy="667" grid="1" gridSize="10" guides="1" tooltips="1" connect="1" arrows="1" fold="1" page="1" pageScale="1" pageWidth="827" pageHeight="1169" math="0" shadow="0">
      <root>
        <mxCell id="0" />
        <mxCell id="1" parent="0" />
        <mxCell id="jzqRHpdF6nwIVXYT5m2F-13" style="edgeStyle=orthogonalEdgeStyle;rounded=0;orthogonalLoop=1;jettySize=auto;html=1;exitX=1;exitY=0.5;exitDx=0;exitDy=0;entryX=0;entryY=0.5;entryDx=0;entryDy=0;" edge="1" parent="1" source="jzqRHpdF6nwIVXYT5m2F-1" target="jzqRHpdF6nwIVXYT5m2F-2">
          <mxGeometry relative="1" as="geometry" />
        </mxCell>
        <mxCell id="jzqRHpdF6nwIVXYT5m2F-1" value="" style="rounded=1;whiteSpace=wrap;html=1;" vertex="1" parent="1">
          <mxGeometry x="70" y="180" width="120" height="60" as="geometry" />
        </mxCell>
        <mxCell id="jzqRHpdF6nwIVXYT5m2F-15" style="edgeStyle=orthogonalEdgeStyle;rounded=0;orthogonalLoop=1;jettySize=auto;html=1;exitX=1;exitY=0.5;exitDx=0;exitDy=0;entryX=0;entryY=0.5;entryDx=0;entryDy=0;" edge="1" parent="1" source="jzqRHpdF6nwIVXYT5m2F-2" target="jzqRHpdF6nwIVXYT5m2F-3">
          <mxGeometry relative="1" as="geometry" />
        </mxCell>
        <mxCell id="jzqRHpdF6nwIVXYT5m2F-2" value="" style="rounded=1;whiteSpace=wrap;html=1;" vertex="1" parent="1">
          <mxGeometry x="350" y="180" width="120" height="60" as="geometry" />
        </mxCell>
        <mxCell id="jzqRHpdF6nwIVXYT5m2F-22" style="edgeStyle=orthogonalEdgeStyle;rounded=0;orthogonalLoop=1;jettySize=auto;html=1;exitX=0.5;exitY=1;exitDx=0;exitDy=0;" edge="1" parent="1" source="jzqRHpdF6nwIVXYT5m2F-3" target="jzqRHpdF6nwIVXYT5m2F-8">
          <mxGeometry relative="1" as="geometry" />
        </mxCell>
        <mxCell id="jzqRHpdF6nwIVXYT5m2F-3" value="" style="rounded=1;whiteSpace=wrap;html=1;" vertex="1" parent="1">
          <mxGeometry x="610" y="180" width="120" height="60" as="geometry" />
        </mxCell>
        <mxCell id="jzqRHpdF6nwIVXYT5m2F-19" style="edgeStyle=orthogonalEdgeStyle;rounded=0;orthogonalLoop=1;jettySize=auto;html=1;exitX=0.5;exitY=1;exitDx=0;exitDy=0;" edge="1" parent="1" source="jzqRHpdF6nwIVXYT5m2F-6" target="jzqRHpdF6nwIVXYT5m2F-10">
          <mxGeometry relative="1" as="geometry" />
        </mxCell>
        <mxCell id="jzqRHpdF6nwIVXYT5m2F-6" value="" style="rounded=1;whiteSpace=wrap;html=1;" vertex="1" parent="1">
          <mxGeometry x="84" y="360" width="120" height="60" as="geometry" />
        </mxCell>
        <mxCell id="jzqRHpdF6nwIVXYT5m2F-18" style="edgeStyle=orthogonalEdgeStyle;rounded=0;orthogonalLoop=1;jettySize=auto;html=1;exitX=0;exitY=0.5;exitDx=0;exitDy=0;entryX=1;entryY=0.5;entryDx=0;entryDy=0;" edge="1" parent="1" source="jzqRHpdF6nwIVXYT5m2F-7" target="jzqRHpdF6nwIVXYT5m2F-6">
          <mxGeometry relative="1" as="geometry" />
        </mxCell>
        <mxCell id="jzqRHpdF6nwIVXYT5m2F-7" value="" style="rounded=1;whiteSpace=wrap;html=1;" vertex="1" parent="1">
          <mxGeometry x="360" y="360" width="120" height="60" as="geometry" />
        </mxCell>
        <mxCell id="jzqRHpdF6nwIVXYT5m2F-17" style="edgeStyle=orthogonalEdgeStyle;rounded=0;orthogonalLoop=1;jettySize=auto;html=1;exitX=0;exitY=0.5;exitDx=0;exitDy=0;entryX=1;entryY=0.5;entryDx=0;entryDy=0;" edge="1" parent="1" source="jzqRHpdF6nwIVXYT5m2F-8" target="jzqRHpdF6nwIVXYT5m2F-7">
          <mxGeometry relative="1" as="geometry" />
        </mxCell>
        <mxCell id="jzqRHpdF6nwIVXYT5m2F-8" value="" style="rounded=1;whiteSpace=wrap;html=1;" vertex="1" parent="1">
          <mxGeometry x="610" y="360" width="120" height="60" as="geometry" />
        </mxCell>
        <mxCell id="jzqRHpdF6nwIVXYT5m2F-20" style="edgeStyle=orthogonalEdgeStyle;rounded=0;orthogonalLoop=1;jettySize=auto;html=1;exitX=1;exitY=0.5;exitDx=0;exitDy=0;entryX=0;entryY=0.5;entryDx=0;entryDy=0;" edge="1" parent="1" source="jzqRHpdF6nwIVXYT5m2F-10" target="jzqRHpdF6nwIVXYT5m2F-11">
          <mxGeometry relative="1" as="geometry" />
        </mxCell>
        <mxCell id="jzqRHpdF6nwIVXYT5m2F-10" value="" style="rounded=1;whiteSpace=wrap;html=1;" vertex="1" parent="1">
          <mxGeometry x="84" y="540" width="120" height="60" as="geometry" />
        </mxCell>
        <mxCell id="jzqRHpdF6nwIVXYT5m2F-21" style="edgeStyle=orthogonalEdgeStyle;rounded=0;orthogonalLoop=1;jettySize=auto;html=1;exitX=1;exitY=0.5;exitDx=0;exitDy=0;" edge="1" parent="1" source="jzqRHpdF6nwIVXYT5m2F-11" target="jzqRHpdF6nwIVXYT5m2F-12">
          <mxGeometry relative="1" as="geometry" />
        </mxCell>
        <mxCell id="jzqRHpdF6nwIVXYT5m2F-11" value="" style="rounded=1;whiteSpace=wrap;html=1;" vertex="1" parent="1">
          <mxGeometry x="364" y="540" width="120" height="60" as="geometry" />
        </mxCell>
        <mxCell id="jzqRHpdF6nwIVXYT5m2F-12" value="" style="rounded=1;whiteSpace=wrap;html=1;" vertex="1" parent="1">
          <mxGeometry x="610" y="540" width="120" height="60" as="geometry" />
        </mxCell>
      </root>
    </mxGraphModel>
  </diagram>
</mxfile>
